<svg xmlns="http://www.w3.org/2000/svg" viewBox="0 0 360 450" role="img" aria-labelledby="title desc">
  <title id="title">소금빵 카페 포스터</title>
  <desc id="desc">베이지색 배경에 소금빵과 캐릭터가 그려진 포스터</desc>
  <defs><pattern id="p" width="52" height="52" patternUnits="userSpaceOnUse"><path d="M11 28c-6-12 7-24 18-16 9-4 18 4 14 13 6 7-1 17-10 14H19c-7 1-12-5-8-11Z" fill="none" stroke="#eadfc5" stroke-width="1.5"/></pattern></defs>
  <rect width="360" height="450" rx="18" fill="#fffaf0"/>
  <rect width="360" height="450" rx="18" fill="url(#p)"/>
  <text x="180" y="76" text-anchor="middle" font-family="Arial, sans-serif" font-size="27" font-weight="900" fill="#202020">박뚜기 소금빵 × Yoajung</text>
  <text x="180" y="123" text-anchor="middle" font-family="Arial, sans-serif" font-size="28" font-weight="900" fill="#1684bd" stroke="#fff" stroke-width="5" paint-order="stroke">7월 7일</text>
  <text x="180" y="164" text-anchor="middle" font-family="Arial, sans-serif" font-size="37" font-weight="900" fill="#1684bd" stroke="#fff" stroke-width="6" paint-order="stroke">COMING SOON</text>
  <path d="m180 182 62 93H118Z" fill="#0878b8"/>
  <text x="180" y="249" text-anchor="middle" font-family="Arial, sans-serif" font-size="75" font-weight="900" fill="#fff">?</text>
  <path d="M86 357c16-59 59-85 105-53 37-16 84 14 88 57-49 26-145 28-193-4Z" fill="#d89c62" stroke="#252525" stroke-width="4"/>
  <path d="M96 326c-23-25 2-59 29-43 3-31 47-28 54 1-14 14-28 20-48 18" fill="#fff" stroke="#252525" stroke-width="4"/>
  <path d="M220 322c-8-31 29-48 47-25 17-19 45 1 36 24 17 11 7 39-13 38h-52" fill="#fff" stroke="#252525" stroke-width="4"/>
  <path d="M246 317c5 6 10 6 15 0M278 317c5 6 10 6 15 0" fill="none" stroke="#222" stroke-width="3" stroke-linecap="round"/>
  <text x="180" y="414" text-anchor="middle" font-family="Arial, sans-serif" font-size="17" font-weight="700" fill="#292929">바삭하고 귀여운 여름의 맛</text>
</svg>
