<svg xmlns="http://www.w3.org/2000/svg" viewBox="0 0 360 450" role="img" aria-labelledby="title desc">
  <title id="title">플리마켓 포스터</title>
  <desc id="desc">하얀 배경에 손그림 천막과 플리마켓 글자가 있는 포스터</desc>
  <rect width="360" height="450" rx="18" fill="#fff"/>
  <path d="M72 88c24-18 39-1 29 18-15 29 4 35 24 45 22 11 6 40 30 49" fill="none" stroke="#c8c5c0" stroke-width="2" stroke-linecap="round"/>
  <path d="M88 76c-13-1-19 11-10 16M104 68c-8 8-5 20 3 22" fill="none" stroke="#c8c5c0" stroke-width="2" stroke-linecap="round"/>
  <path d="M104 228v-88l73-48 79 52v91c-44 17-102 19-152-7Z" fill="#fafafa" stroke="#111" stroke-width="7" stroke-linejoin="round"/>
  <path d="M173 104v-32M173 72l15 9" fill="none" stroke="#111" stroke-width="6" stroke-linecap="round"/>
  <path d="m191 162 24-21-13 29 27 9-31 3 2 31-14-27-25 18 18-25-22-16 28 9Z" fill="none" stroke="#111" stroke-width="3" stroke-linejoin="round"/>
  <text x="180" y="306" text-anchor="middle" font-family="Arial, sans-serif" font-size="42" font-weight="700" letter-spacing="2" fill="#151515">flea market</text>
  <text x="180" y="343" text-anchor="middle" font-family="Arial, sans-serif" font-size="15" letter-spacing="4" fill="#555">THE COOLEST MOMENT</text>
  <text x="180" y="391" text-anchor="middle" font-family="Arial, sans-serif" font-size="17" font-weight="700" fill="#191919">26. 07. 16 — 07. 19</text>
</svg>
